<?xml version="1.0" standalone="no"?>
<svg xmlns:xlink="http://www.w3.org/1999/xlink" id="wave" style="transform:rotate(180deg); transition: 0.3s" viewBox="0 0 1440 120" version="1.1" xmlns="http://www.w3.org/2000/svg"><defs><linearGradient id="sw-gradient-0" x1="0" x2="0" y1="1" y2="0"><stop stop-color="rgba(210, 201, 189, 1)" offset="0%"/><stop stop-color="rgba(210, 201, 189, 1)" offset="100%"/></linearGradient></defs><path style="transform:translate(0, 0px); opacity:1" fill="url(#sw-gradient-0)" d="M0,84L60,72C120,60,240,36,360,24C480,12,600,12,720,22C840,32,960,52,1080,60C1200,68,1320,64,1440,66C1560,68,1680,76,1800,74C1920,72,2040,60,2160,52C2280,44,2400,40,2520,46C2640,52,2760,68,2880,74C3000,80,3120,76,3240,76C3360,76,3480,80,3600,76C3720,72,3840,60,3960,46C4080,32,4200,16,4320,22C4440,28,4560,56,4680,64C4800,72,4920,60,5040,58C5160,56,5280,64,5400,62C5520,60,5640,48,5760,46C5880,44,6000,52,6120,62C6240,72,6360,84,6480,80C6600,76,6720,56,6840,50C6960,44,7080,52,7200,62C7320,72,7440,84,7560,88C7680,92,7800,88,7920,84C8040,80,8160,76,8280,68C8400,60,8520,48,8580,42L8640,36L8640,120L8580,120C8520,120,8400,120,8280,120C8160,120,8040,120,7920,120C7800,120,7680,120,7560,120C7440,120,7320,120,7200,120C7080,120,6960,120,6840,120C6720,120,6600,120,6480,120C6360,120,6240,120,6120,120C6000,120,5880,120,5760,120C5640,120,5520,120,5400,120C5280,120,5160,120,5040,120C4920,120,4800,120,4680,120C4560,120,4440,120,4320,120C4200,120,4080,120,3960,120C3840,120,3720,120,3600,120C3480,120,3360,120,3240,120C3120,120,3000,120,2880,120C2760,120,2640,120,2520,120C2400,120,2280,120,2160,120C2040,120,1920,120,1800,120C1680,120,1560,120,1440,120C1320,120,1200,120,1080,120C960,120,840,120,720,120C600,120,480,120,360,120C240,120,120,120,60,120L0,120Z"/></svg>